<svg width="34" height="34" viewBox="0 0 34 34" fill="none" xmlns="http://www.w3.org/2000/svg">
<path fill-rule="evenodd" clip-rule="evenodd" d="M22.9095 7.63807C23.1345 7.41306 23.4397 7.28665 23.7579 7.28665C24.0761 7.28665 24.3813 7.41306 24.6063 7.63807L33.0903 16.1221C33.3153 16.3471 33.4417 16.6522 33.4417 16.9705C33.4417 17.2887 33.3153 17.5938 33.0903 17.8189L24.6063 26.3028C24.3813 26.5279 24.0761 26.6543 23.7579 26.6543C23.4397 26.6543 23.1345 26.5279 22.9095 26.3028C22.6845 26.0778 22.5581 25.7727 22.5581 25.4544C22.5581 25.1362 22.6845 24.8311 22.9095 24.606L30.5451 16.9705L22.9095 9.33487C22.6845 9.10986 22.5581 8.80468 22.5581 8.48647C22.5581 8.16826 22.6845 7.86308 22.9095 7.63807Z" fill="white"/>
<path fill-rule="evenodd" clip-rule="evenodd" d="M0.498498 16.9705C0.498298 16.8126 0.529236 16.6563 0.589538 16.5105C0.64984 16.3647 0.738322 16.2321 0.849915 16.1205C0.961509 16.0089 1.09402 15.9205 1.23986 15.8602C1.38571 15.7999 1.54201 15.7689 1.69983 15.7691L32.2422 15.7691C32.5608 15.7691 32.8664 15.8957 33.0917 16.121C33.3169 16.3463 33.4435 16.6518 33.4435 16.9705C33.4435 17.2891 33.3169 17.5946 33.0917 17.8199C32.8664 18.0452 32.5608 18.1718 32.2422 18.1718L1.69983 18.1718C1.54201 18.172 1.38571 18.1411 1.23986 18.0808C1.09402 18.0205 0.961509 17.932 0.849915 17.8204C0.738322 17.7088 0.64984 17.5763 0.589538 17.4304C0.529236 17.2846 0.498298 17.1283 0.498498 16.9705Z" fill="white"/>
</svg>
