<svg width="40" height="30" viewBox="0 0 40 30" fill="none" xmlns="http://www.w3.org/2000/svg">
<path fill-rule="evenodd" clip-rule="evenodd" d="M26.393 6.75126C26.6512 6.55238 27.0014 6.44064 27.3666 6.44064C27.7317 6.44064 28.082 6.55238 28.3402 6.75126L38.0762 14.2501C38.3344 14.449 38.4795 14.7187 38.4795 15C38.4795 15.2813 38.3344 15.551 38.0762 15.7499L28.3402 23.2487C28.082 23.4476 27.7317 23.5594 27.3666 23.5594C27.0014 23.5594 26.6512 23.4476 26.393 23.2487C26.1348 23.0499 25.9897 22.7801 25.9897 22.4989C25.9897 22.2176 26.1348 21.9479 26.393 21.749L35.1554 15L26.393 8.25103C26.1348 8.05215 25.9897 7.78241 25.9897 7.50114C25.9897 7.21988 26.1348 6.95014 26.393 6.75126Z" fill="white"/>
<path fill-rule="evenodd" clip-rule="evenodd" d="M0.674603 15C0.674374 14.8605 0.709877 14.7224 0.779078 14.5934C0.848279 14.4645 0.949819 14.3474 1.07788 14.2488C1.20594 14.1501 1.35801 14.0719 1.52538 14.0186C1.69274 13.9653 1.87212 13.938 2.05322 13.9382L37.1029 13.9382C37.4685 13.9382 37.8192 14.05 38.0777 14.2492C38.3363 14.4483 38.4815 14.7184 38.4815 15C38.4815 15.2816 38.3363 15.5517 38.0777 15.7508C37.8192 15.95 37.4685 16.0618 37.1029 16.0618L2.05322 16.0618C1.87212 16.062 1.69274 16.0347 1.52538 15.9814C1.35801 15.9281 1.20594 15.8499 1.07788 15.7512C0.949819 15.6526 0.848279 15.5355 0.779078 15.4066C0.709877 15.2776 0.674374 15.1395 0.674603 15Z" fill="white"/>
</svg>
