<svg width="42" height="30" viewBox="0 0 42 30" fill="none" xmlns="http://www.w3.org/2000/svg">
<path fill-rule="evenodd" clip-rule="evenodd" d="M27.7767 6.75126C28.0485 6.55238 28.4172 6.44064 28.8015 6.44064C29.1859 6.44064 29.5546 6.55238 29.8264 6.75126L40.0748 14.2501C40.3466 14.449 40.4993 14.7187 40.4993 15C40.4993 15.2813 40.3466 15.551 40.0748 15.7499L29.8264 23.2487C29.5546 23.4476 29.1859 23.5594 28.8015 23.5594C28.4172 23.5594 28.0485 23.4476 27.7767 23.2487C27.5049 23.0499 27.3522 22.7801 27.3522 22.4989C27.3522 22.2176 27.5049 21.9479 27.7767 21.749L37.0003 15L27.7767 8.25103C27.5049 8.05215 27.3522 7.78241 27.3522 7.50114C27.3522 7.21988 27.5049 6.95014 27.7767 6.75126Z" fill="black"/>
<path fill-rule="evenodd" clip-rule="evenodd" d="M0.704712 15C0.704471 14.8605 0.741842 14.7224 0.814686 14.5934C0.887529 14.4645 0.994413 14.3474 1.12922 14.2488C1.26402 14.1501 1.42409 14.0719 1.60026 14.0186C1.77644 13.9653 1.96525 13.938 2.15589 13.9382L39.0503 13.9382C39.4351 13.9382 39.8043 14.05 40.0764 14.2492C40.3486 14.4483 40.5014 14.7184 40.5014 15C40.5014 15.2816 40.3486 15.5517 40.0764 15.7508C39.8043 15.95 39.4351 16.0618 39.0503 16.0618L2.15589 16.0618C1.96525 16.062 1.77644 16.0347 1.60026 15.9814C1.42409 15.9281 1.26402 15.8499 1.12922 15.7512C0.994413 15.6526 0.887529 15.5355 0.814686 15.4066C0.741842 15.2776 0.704471 15.1395 0.704712 15Z" fill="black"/>
</svg>
