<svg width="102" height="102" viewBox="0 0 102 102" fill="none" xmlns="http://www.w3.org/2000/svg">
<path d="M101 51C101 78.618 78.6182 101 51.0002 101C23.3823 101 1.00024 78.618 1.00024 51C1.00024 23.382 23.3823 1 51.0002 1C78.6182 1 101 23.382 101 51Z" stroke="white" stroke-width="2" stroke-miterlimit="10"/>
<path d="M59.792 51.0017C59.792 55.8659 55.8489 59.7929 51.0008 59.7929C46.1366 59.7929 42.2096 55.8498 42.2096 51.0017C42.2096 46.1536 46.1527 42.2104 51.0008 42.2104C55.8489 42.2104 59.792 46.1374 59.792 51.0017Z" fill="white"/>
<path d="M70.9993 78.2245C71.3467 78.6538 71.9764 78.7202 72.4057 78.3728C72.8351 78.0254 72.9015 77.3958 72.5541 76.9664L70.9993 78.2245ZM72.5541 76.9664L52.94 52.726L51.3852 53.984L70.9993 78.2245L72.5541 76.9664Z" fill="white"/>
<path d="M52.7929 49.0052L68.7643 22.2241" stroke="white" stroke-width="2" stroke-linecap="round"/>
<path d="M51.0029 100.861V88.3945" stroke="white" stroke-width="2" stroke-linecap="round"/>
<path d="M99.9102 50.9946L87.4434 50.9946" stroke="white" stroke-width="2" stroke-linecap="round"/>
<path d="M13.6014 50.9946L1.13452 50.9946" stroke="white" stroke-width="2" stroke-linecap="round"/>
<path d="M51.0029 13.5943V1.12744" stroke="white" stroke-width="2" stroke-linecap="round"/>
</svg>
