<svg width="100" height="100" viewBox="0 0 100 100" fill="none" xmlns="http://www.w3.org/2000/svg">
<path d="M50.0002 0C22.3891 0 0.000244141 22.3889 0.000244141 50C0.000244141 77.6111 22.3891 100 50.0002 100C77.6114 100 100 77.6111 100 50C100 22.3889 77.6114 0 50.0002 0ZM83.6447 83.6444C74.6558 92.6333 62.7114 97.5889 50.0002 97.5889C37.2891 97.5889 25.3447 92.6444 16.3558 83.6556C7.36691 74.6556 2.41136 62.7111 2.41136 50C2.41136 37.2889 7.3558 25.3444 16.3447 16.3556C16.5558 16.1444 16.778 15.9444 16.9891 15.7444C16.8225 16.2556 16.6336 16.7667 16.3336 17.2111C15.6225 18.2667 14.4447 18.6889 13.7002 19.6778C13.0225 20.5778 12.478 21.9444 12.2336 22.9556C11.9669 24.0556 12.1225 25.3778 11.7447 26.4778C11.2558 27.8667 10.3669 28.6889 10.5336 30.3C12.4669 30.8778 11.6225 27.4444 13.2558 27.2667C13.7669 28.5444 13.4336 30.9333 13.2891 32.3333C13.0891 34.2556 12.7114 34.7333 13.8558 36.3778C14.7669 37.6889 15.0669 38.5556 16.8225 38.7667C18.4336 38.9556 19.1002 39.6889 19.778 41.2444C21.0225 41.5111 21.778 41.7111 21.9336 43.0889C22.4669 43.3889 23.4891 44.3556 24.0558 44.5111C24.878 44.7222 26.2558 43.5556 27.0336 44.4556C28.3336 45.9667 25.3891 49.9222 24.8558 51.2778C24.0891 53.2778 23.9669 56.2 25.8669 57.6333C26.8336 58.3667 27.8669 58.7222 28.1891 60.0556C28.478 61.2889 28.2558 62.3222 28.8002 63.4889C29.6558 65.3111 31.6002 65.9111 33.0002 67.3C34.8225 69.1222 34.7002 71.5 34.7002 74.0778C34.7002 76.7889 35.7336 78.8445 36.0891 81.3222C36.4558 83.8778 37.2114 86.2444 37.7447 88.7222C38.1447 90.5778 39.7558 93.3889 42.078 93.0111C42.2447 92.1333 41.3225 91.4445 41.2114 90.5667C41.1114 89.7778 41.3336 88.9445 41.1669 88.1C40.8558 86.4222 40.8669 85.4333 41.978 83.9778C42.3669 83.4667 42.9114 83.0333 43.3225 82.5222C44.1114 81.5222 43.5114 81.8222 43.478 80.7222C43.4336 79.3556 43.8558 80.0222 44.678 79.6C45.1114 79.3778 45.578 78.7111 45.9114 78.3667C46.6336 77.6111 47.7447 76.7222 48.3002 75.8222C48.9225 74.8222 48.8447 73.4222 49.4891 72.3889C50.2225 71.2 51.2669 71.2 52.3002 70.4222C53.6336 69.4222 53.0891 68.3667 53.3336 66.9889C53.7447 64.6889 54.778 62.1556 56.2336 60.3222C58.0558 58.0222 58.8447 56.0556 56.6225 53.8444C55.5225 52.7556 54.9558 53.0444 53.5002 52.6667C52.3891 52.3778 51.3891 51.5667 50.2669 51.4222C49.5891 51.3444 49.1891 51.5778 48.578 51.4222C48.0002 51.2667 48.0669 50.9222 47.4669 50.9222C46.5558 50.9333 45.3002 52.8222 44.5336 51.6111C44.1114 50.9333 45.4002 49.0778 45.3447 48.1778C45.2669 47.0778 44.8558 45.2667 43.778 44.6667C43.3669 44.4333 42.4558 44.4 41.9558 44.2111C41.3669 43.9889 40.7891 43.6222 40.2558 43.2778C39.5669 42.8333 38.2336 42.0667 37.9225 41.2667C37.078 41.2333 36.5002 40.7667 35.6336 40.7778C34.8558 40.7889 34.3447 41.1444 33.5114 41.0556C32.778 40.9778 31.9891 40.4 31.2002 40.5C30.678 40.5778 29.8891 41.2556 29.4336 41.5111C28.2336 42.1889 26.9447 42.6778 25.6114 42.9333C23.5447 43.3222 23.178 42.5333 23.3002 40.6222L22.9891 40.0111C23.7558 37.8778 22.378 37.7333 20.8558 37.2111C20.6447 35.6889 22.5114 34.6111 21.7336 32.9444C20.1558 32.8667 18.4336 37.3 17.1002 35.3778C16.2225 34.1111 17.5558 30.5556 18.3336 29.4889C19.1114 28.4 21.9558 26.4556 23.2891 26.2778C24.3336 26.1444 25.2447 26.6111 25.6447 27.5222C26.078 28.5222 25.5114 29.4556 25.6336 30.5889C26.9669 30.2778 26.6225 28.5889 26.5669 27.6778C26.4669 26.1667 27.2669 26.2778 28.0336 25.1778C28.7336 24.1778 28.8447 23.0444 29.7225 22.0889C30.4114 21.3333 31.2114 20.5444 31.9558 19.8556C32.8114 19.0667 33.778 19.1333 34.6558 18.5556C35.9891 17.6778 34.2225 16.0333 36.1891 16.1556C36.8891 16.2 36.5447 16.6333 37.4669 16.4222C37.8558 16.3333 38.5891 15.9667 39.0002 15.8C40.878 15.0333 39.5447 14.8333 38.6891 13.8444C37.5891 12.5778 39.1447 12.8 40.278 12.6111C41.1114 12.4667 40.9336 12.2 41.6669 12.6889C42.3114 13.1222 41.9336 13.6889 42.8669 13.6556C44.6447 13.6 43.4114 11.8111 43.0225 11.2222C42.3447 10.2111 42.1669 9.5 40.7336 9.46667C40.8669 9.01111 40.8891 8.41111 40.6891 7.97778C39.478 8.13333 39.278 7.25556 38.3669 6.91111C36.8336 6.33333 37.078 7.58889 36.4447 8.44444C35.8002 9.33333 34.5558 9.17778 34.0891 10.2556C33.6002 11.3778 34.0669 12.2333 32.2558 11.9333C32.5002 11.2556 32.4225 10.3889 32.3669 9.66667C31.8447 9.6 31.3669 9.46667 30.878 9.31111C30.878 7.5 32.878 7.35556 34.2447 7.17778C35.7669 6.98889 36.2669 5.43333 37.6225 5.17778C38.8891 4.93333 39.8002 6.98889 41.3669 5.8C42.2558 5.12222 41.8447 4.72222 41.5225 4.06667C41.4336 3.88889 40.9891 3.5 40.8669 3.33333C40.8558 3.33333 40.8558 3.31111 40.8447 3.3C42.0558 3.06667 43.2891 2.88889 44.5225 2.74444C44.7558 3.42222 45.2558 4.23333 45.5336 4.7C45.7336 5.04444 46.1114 5.27778 46.278 5.65556C46.4669 6.08889 46.0336 6.62222 46.5669 6.91111C47.4002 7.35556 49.8447 4.44444 50.4225 3.97778C51.1669 3.37778 51.6336 3.04444 51.4558 2.46667C55.378 2.58889 59.2114 3.17778 62.9002 4.21111C63.1891 4.57778 63.5002 4.95556 63.8002 5.37778C64.4447 6.27778 64.8558 7.08889 66.0336 7.48889C66.7114 7.72222 68.878 7.67778 67.978 9.22222C67.1447 10.6444 66.2336 8.77778 65.8114 8.33333C65.2336 7.71111 63.5114 7.02222 63.5669 8.44444C63.6447 10.5667 68.4447 10.2333 67.4114 12.5667C67.9891 12.9 69.1225 13.4667 68.9336 14.3C68.7002 15.3333 67.3558 14.6778 67.3891 16C67.4225 17.8667 69.4669 19.4111 71.3669 18.7333C73.3891 18.0111 71.8669 15.2111 74.178 14.9222C75.0891 14.8111 75.6336 15.0778 76.4447 15.7222C77.1114 16.2444 77.5447 17.4444 78.4558 17.3556C78.5558 16.7889 78.1225 16.3778 78.0447 15.8556C78.7558 16.0333 80.1891 16.9222 80.5891 17.5444C81.2114 18.4778 81.1447 19.8333 82.6447 18.6222C82.4225 18.4333 82.3002 18.0222 82.178 17.8778C84.1114 17.8889 85.4558 18.6778 86.2891 20.3556C88.1447 24.1 83.5891 21.1333 83.3669 23.0778C82.2447 22.7222 81.7447 21.8222 80.778 21.2778C80.3114 21.0222 79.4669 21.1556 79.1114 20.9C78.6225 20.5444 78.7447 19.9 78.3114 19.5444C76.6336 18.1667 72.8002 20.3889 71.2558 21.2778C70.8336 21.5222 70.3891 21.5444 70.1003 22C69.6114 22.7778 70.3002 22.9778 70.1447 23.7C69.9225 24.7333 68.578 25.2111 68.1669 26.0444C67.1891 28.0333 69.178 30.8889 68.9114 33.1C68.7669 34.3333 67.4336 35.6556 67.9447 36.6889C68.1669 37.1333 68.9225 37.5111 69.2225 38.0333C69.4891 38.5111 69.6003 39.1333 69.9558 39.6222C71.0891 41.2111 72.7225 42.9889 74.0447 44.4778C74.8002 45.3222 75.8225 45.5556 76.9669 45.3222C77.9114 45.1333 79.3336 44.8111 80.2002 44.4C81.3669 43.8444 81.5225 43.0556 82.7447 43.5889C83.7225 44.0111 84.578 45.2556 85.7114 44.2222C86.6447 45.1333 85.6114 46.7333 85.4002 47.7556C85.1336 49.0667 85.6447 50.2 86.4558 51.3111C87.4225 52.6444 87.6447 52.8778 87.4447 54.6556C87.2891 56.0444 86.9336 57.3111 86.6447 58.6889C86.3558 60 85.5225 61 85.5669 62.4C85.6114 63.6889 86.1669 64.7222 86.0003 66.1C85.8558 67.3111 85.778 68.7667 85.4558 69.9556C85.1336 71.1778 84.2669 72.2556 83.9114 73.5C83.5669 74.6889 83.6669 76.2222 84.4891 77.2C85.3558 78.2111 86.2114 77.6333 87.2225 76.8667C89.2225 75.3445 90.1336 72.7778 91.4558 70.7333C92.8114 68.6444 94.178 66.7333 95.078 64.5667C95.2669 64.1111 95.5003 63.6556 95.7336 63.2C93.5447 70.8222 89.4447 77.8556 83.6447 83.6444Z" fill="white"/>
</svg>
