<svg width="24" height="24" viewBox="0 0 24 24" fill="none" xmlns="http://www.w3.org/2000/svg">
<path d="M12.2338 2.65617C15.3531 2.65617 15.7226 2.66809 16.9544 2.7243C18.0935 2.77623 18.712 2.96655 19.1237 3.12653C19.669 3.33846 20.0581 3.59161 20.4669 4.00038C20.8757 4.4092 21.1289 4.79836 21.3408 5.34366C21.5008 5.75531 21.6911 6.37388 21.743 7.51288C21.7992 8.74473 21.8112 9.11423 21.8112 12.2335C21.8112 15.3528 21.7992 15.7223 21.743 16.9541C21.6911 18.0931 21.5008 18.7117 21.3408 19.1234C21.1289 19.6687 20.8757 20.0578 20.467 20.4666C20.0581 20.8754 19.669 21.1286 19.1237 21.3405C18.712 21.5005 18.0935 21.6908 16.9544 21.7427C15.7228 21.7989 15.3533 21.8109 12.2338 21.8109C9.11427 21.8109 8.74486 21.7989 7.51315 21.7427C6.37414 21.6908 5.75557 21.5005 5.34392 21.3405C4.79862 21.1286 4.40946 20.8754 4.00068 20.4666C3.59191 20.0578 3.33871 19.6687 3.12679 19.1234C2.9668 18.7117 2.77649 18.0931 2.72455 16.9541C2.66834 15.7223 2.65643 15.3528 2.65643 12.2335C2.65643 9.11423 2.66834 8.74473 2.72455 7.51288C2.77649 6.37388 2.9668 5.75531 3.12679 5.34366C3.33871 4.79836 3.59186 4.4092 4.00068 4.00043C4.40946 3.59161 4.79862 3.33846 5.34392 3.12653C5.75557 2.96655 6.37414 2.77623 7.51315 2.7243C8.745 2.66809 9.1145 2.65617 12.2338 2.65617ZM12.2338 0.55127C9.06108 0.55127 8.66325 0.564718 7.41721 0.621571C6.17376 0.678284 5.32454 0.875786 4.58146 1.16455C3.81324 1.4631 3.16175 1.86255 2.51225 2.512C1.8628 3.1615 1.46334 3.81299 1.16484 4.5812C0.876031 5.32428 0.678529 6.1735 0.621815 7.41694C0.564962 8.66297 0.551514 9.06081 0.551514 12.2335C0.551514 15.4062 0.564962 15.8041 0.621815 17.0501C0.678529 18.2935 0.876031 19.1427 1.16484 19.8858C1.46334 20.654 1.8628 21.3055 2.51225 21.955C3.16175 22.6045 3.81324 23.0039 4.58146 23.3024C5.32454 23.5912 6.17376 23.7887 7.41721 23.8455C8.66325 23.9023 9.06108 23.9158 12.2338 23.9158C15.4065 23.9158 15.8043 23.9023 17.0504 23.8455C18.2938 23.7887 19.1431 23.5912 19.8861 23.3024C20.6544 23.0039 21.3058 22.6045 21.9553 21.955C22.6048 21.3055 23.0042 20.654 23.3028 19.8858C23.5916 19.1427 23.7891 18.2935 23.8458 17.0501C23.9026 15.8041 23.9161 15.4062 23.9161 12.2335C23.9161 9.06081 23.9026 8.66297 23.8458 7.41694C23.7891 6.1735 23.5916 5.32428 23.3028 4.5812C23.0042 3.81299 22.6048 3.1615 21.9553 2.512C21.3058 1.86255 20.6544 1.4631 19.8861 1.16455C19.1431 0.875786 18.2938 0.678284 17.0504 0.621571C15.8043 0.564718 15.4065 0.55127 12.2338 0.55127Z" fill="white"/>
<path d="M12.239 6.23926C8.92582 6.23926 6.23999 8.92507 6.23999 12.2382C6.23999 15.5514 8.92582 18.2372 12.239 18.2372C15.5522 18.2372 18.238 15.5514 18.238 12.2382C18.238 8.92507 15.5522 6.23926 12.239 6.23926ZM12.239 16.1323C10.0883 16.1323 8.3449 14.3889 8.3449 12.2382C8.3449 10.0876 10.0883 8.34416 12.239 8.34416C14.3897 8.34416 16.1331 10.0876 16.1331 12.2382C16.1331 14.3889 14.3897 16.1323 12.239 16.1323Z" fill="white"/>
<path d="M19.8768 5.99858C19.8768 6.77277 19.2491 7.40043 18.4749 7.40043C17.7007 7.40043 17.073 6.77277 17.073 5.99858C17.073 5.22434 17.7007 4.59668 18.4749 4.59668C19.2491 4.59668 19.8768 5.22434 19.8768 5.99858Z" fill="white"/>
</svg>
