<svg width="104" height="102" viewBox="0 0 104 102" fill="none" xmlns="http://www.w3.org/2000/svg">
<path d="M61.5071 82.1509V84.6016V84.7913C60.365 85.1414 58.2589 85.7686 57.5766 85.7686H46.3487C46.1114 85.7395 43.8866 85.2143 42.344 84.835V84.6162V82.1509C40.6532 82.8511 39.6298 84.0327 39.6298 85.5061C39.6298 86.9794 40.9053 87.9276 42.344 88.5403C44.1684 89.3134 46.2449 89.5323 46.2745 89.5323H57.5766C59.1043 89.5323 60.4392 89.2843 61.5071 88.8321C63.1979 88.1318 64.2214 86.9357 64.2214 85.4769C64.2214 84.0327 63.1979 82.8511 61.5071 82.1509Z" fill="white"/>
<path d="M61.5071 75.5342V77.9849V78.1746C60.365 78.5247 58.2589 79.1519 57.5766 79.1519H46.3487C46.1114 79.1228 43.8866 78.5976 42.344 78.2183V77.9995V75.5342C40.6532 76.2344 39.6298 77.416 39.6298 78.8894C39.6298 80.3627 40.9053 81.3109 42.344 81.9236C44.1684 82.6967 46.2449 82.9156 46.2745 82.9156H57.5766C59.1043 82.9156 60.4392 82.6676 61.5071 82.2154C63.1979 81.5151 64.2214 80.319 64.2214 78.8602C64.2214 77.416 63.1979 76.2344 61.5071 75.5342Z" fill="white"/>
<path d="M61.5071 88.5557V91.0064V91.196C60.365 91.5461 58.2589 92.1734 57.5766 92.1734H46.3487C46.1114 92.1442 43.8866 91.6191 42.344 91.2398V91.0356V88.5702C40.6532 89.2705 39.6298 90.4521 39.6298 91.9254C39.6298 93.3988 40.9053 94.347 42.344 94.9597C44.1684 95.7328 46.2449 95.9516 46.2745 95.9516H57.5766C59.1043 95.9516 60.4392 95.7036 61.5071 95.2514C63.1979 94.5512 64.2214 93.355 64.2214 91.8963C64.2214 90.4229 63.1979 89.2559 61.5071 88.5557Z" fill="white"/>
<path d="M60.9414 85.886V76.9143C63.6657 70.6624 66.9763 64.7216 69.8558 58.5483C70.8495 56.3893 71.4131 54.0261 71.4131 51.5316C71.4131 41.6557 62.6919 33.6616 51.9386 33.6616" stroke="white" stroke-width="2"/>
<path d="M42.6977 86.5762V76.9143C40.7289 70.3857 37.3082 64.7155 34.4316 58.5483C33.4378 56.3893 32.8742 54.0261 32.8742 51.5316C32.8742 41.6557 41.5955 33.6616 52.3488 33.6616" stroke="white" stroke-width="2"/>
<path d="M42.6986 86.5764C42.6986 87.9567 42.6986 90.0411 42.6986 91.4074C42.6986 96.8166 46.4503 101 51.9303 101" stroke="white" stroke-width="2"/>
<path d="M60.9433 85.8863C60.9433 87.2666 60.9433 90.0411 60.9433 91.4074C60.9433 96.8166 57.2032 101 51.7233 101" stroke="white" stroke-width="2"/>
<path d="M38.467 53.2036C37.8143 53.2036 37.2804 52.6784 37.2804 52.0366C37.2804 44.5239 43.495 38.4116 51.1336 38.4116C51.7862 38.4116 52.3201 38.9368 52.3201 39.5786C52.3201 40.2205 51.7862 40.7457 51.1336 40.7457C44.8151 40.7457 39.6684 45.8076 39.6684 52.022C39.6684 52.6784 39.1344 53.2036 38.467 53.2036Z" fill="white"/>
<path d="M72.1694 70.0127L88.0729 86.103" stroke="white" stroke-width="2" stroke-linecap="round"/>
<path d="M32.3947 70.0139L16.0348 85.6553" stroke="white" stroke-width="2" stroke-linecap="round"/>
<path d="M16.0344 14.8027L31.9379 30.8931" stroke="white" stroke-width="2" stroke-linecap="round"/>
<path d="M87.1259 16.1828L70.766 31.8242" stroke="white" stroke-width="2" stroke-linecap="round"/>
<path d="M79.1865 50.708L102 51.0254" stroke="white" stroke-width="2" stroke-linecap="round"/>
<path d="M51.1372 23.4249L51.4601 1" stroke="white" stroke-width="2" stroke-linecap="round"/>
<path d="M2.00024 50.708L24.8138 51.0254" stroke="white" stroke-width="2" stroke-linecap="round"/>
</svg>
