<svg width="102" height="100" viewBox="0 0 102 100" fill="none" xmlns="http://www.w3.org/2000/svg">
<path d="M21.5806 78.4375L78.4086 22.6128" stroke="white" stroke-width="2"/>
<path d="M89.0039 28.7838L89.0015 28.7861C88.1846 29.5947 86.8517 29.5984 86.022 28.7835L86.0218 28.7832L72.1049 15.121C72.1044 15.1206 72.1039 15.1201 72.1035 15.1197C71.2907 14.3137 71.295 13.0317 72.1022 12.2388L82.9287 1.60341C83.7477 0.798865 85.0919 0.798865 85.9109 1.60341L99.8189 15.2659C99.8193 15.2662 99.8196 15.2666 99.82 15.267C100.633 16.0729 100.629 17.3551 99.8216 18.1481L99.8213 18.1484L89.0039 28.7838Z" stroke="white" stroke-width="2"/>
<path d="M28.4741 85.9045L1.91621 98.0257L13.2981 70.9966L28.4741 85.9045Z" stroke="white" stroke-width="2"/>
<path d="M8.3331 95.0916L1.91621 98.0247L4.66631 91.4895L8.3331 95.0916Z" stroke="white" stroke-width="2"/>
<path d="M30.2226 84.8197L14.3732 69.2496L69.9543 14.4136L86.7796 30.9465L30.2226 84.8197Z" stroke="white" stroke-width="2"/>
<path d="M87.3314 30.4209L70.4773 13.8643L74.6975 9.71853L91.5517 26.2751L87.3314 30.4209Z" stroke="white" stroke-width="2"/>
</svg>
