<svg width="100" height="100" viewBox="0 0 100 100" fill="none" xmlns="http://www.w3.org/2000/svg">
<path d="M50.0002 0L52.4057 7.49259H60.1901L53.8924 12.1233L56.2979 19.6159L50.0002 14.9852L43.7025 19.6159L46.108 12.1233L39.8103 7.49259L47.5947 7.49259L50.0002 0Z" fill="white"/>
<path d="M50.0002 78.3135L52.4057 85.8061H60.1901L53.8924 90.4367L56.2979 97.9293L50.0002 93.2987L43.7025 97.9293L46.108 90.4367L39.8103 85.8061H47.5947L50.0002 78.3135Z" fill="white"/>
<path d="M89.2859 36.1445L91.6915 43.6371H99.4758L93.1781 48.2678L95.5837 55.7604L89.2859 51.1297L82.9882 55.7604L85.3938 48.2678L79.0961 43.6371H86.8804L89.2859 36.1445Z" fill="white"/>
<path d="M10.7143 36.1445L13.1198 43.6371H20.9042L14.6065 48.2678L17.012 55.7604L10.7143 51.1297L4.41659 55.7604L6.8221 48.2678L0.524395 43.6371H8.30878L10.7143 36.1445Z" fill="white"/>
<path d="M84.9337 14.644L81.3997 21.6635L86.9041 27.2342L79.2155 26.0018L75.6815 33.0213L74.4637 25.2401L66.7752 24.0077L73.7111 20.4311L72.4934 12.6499L77.9978 18.2206L84.9337 14.644Z" fill="white"/>
<path d="M30.2168 70.0205L26.6827 77.04L32.1871 82.6107L24.4986 81.3783L20.9645 88.3978L19.7468 80.6166L12.0582 79.3842L18.9942 75.8075L17.7764 68.0264L23.2808 73.5971L30.2168 70.0205Z" fill="white"/>
<path d="M86.2702 69.5214L82.7362 76.5409L88.2406 82.1117L80.552 80.8792L77.018 87.8987L75.8003 80.1176L68.1117 78.8851L75.0477 75.3085L73.8299 67.5273L79.3343 73.0981L86.2702 69.5214Z" fill="white"/>
<path d="M30.7109 13.2939L27.1769 20.3134L32.6813 25.8841L24.9927 24.6517L21.4587 31.6712L20.2409 23.89L12.5524 22.6576L19.4883 19.081L18.2706 11.2998L23.775 16.8705L30.7109 13.2939Z" fill="white"/>
<path d="M51.0232 39.2231L53.5324 46.6707H61.3638L55.0832 51.2736L57.5924 58.7212L51.2016 54.1183L44.9209 58.7212L47.2518 51.2736L40.8609 46.6707H48.6923L51.0232 39.2231Z" fill="white"/>
</svg>
