<svg width="24" height="22" viewBox="0 0 24 22" fill="none" xmlns="http://www.w3.org/2000/svg">
<path d="M21.4367 0.440639C21.1557 0.461768 20.88 0.529899 20.6202 0.642375H20.6167C20.3673 0.7446 19.1816 1.26025 17.3789 2.04186L10.9189 4.8544C6.28358 6.87176 1.72698 8.85836 1.72698 8.85836L1.78123 8.83665C1.78123 8.83665 1.46708 8.9434 1.13892 9.17589C0.936182 9.30925 0.761729 9.48375 0.626113 9.68882C0.465096 9.93308 0.335583 10.3067 0.383713 10.693C0.462471 11.3461 0.872014 11.7378 1.16604 11.9541C1.46358 12.173 1.74711 12.2752 1.74711 12.2752H1.75411L6.02718 13.7633C6.21882 14.3993 7.32931 18.1735 7.59622 19.0429C7.75373 19.5621 7.90687 19.8869 8.09852 20.1348C8.19128 20.2614 8.29979 20.3673 8.43018 20.4523C8.49796 20.4931 8.57024 20.5252 8.64545 20.5482L8.6017 20.5373C8.61482 20.5409 8.62532 20.5518 8.63495 20.5554C8.66995 20.5654 8.69358 20.569 8.73821 20.5762C9.41466 20.7879 9.95809 20.3537 9.95809 20.3537L9.98872 20.3284L12.5116 17.9537L16.74 21.3072L16.8363 21.3497C17.7175 21.7496 18.6101 21.527 19.0818 21.1344C19.557 20.7391 19.7416 20.2334 19.7416 20.2334L19.7722 20.1519L23.0398 2.84699C23.1326 2.42 23.1562 2.02015 23.0538 1.63206C22.9482 1.23928 22.7045 0.901472 22.3704 0.684893C22.0899 0.508592 21.7645 0.423495 21.4367 0.440639ZM21.3483 2.29516C21.3448 2.35215 21.3553 2.34582 21.3308 2.45528V2.46523L18.0938 19.5902C18.0798 19.6146 18.0562 19.668 17.9914 19.7213C17.9232 19.7774 17.8689 19.8127 17.5845 19.696L12.4127 15.5971L9.28864 18.5408L9.94496 14.2075L18.3948 6.06572C18.7431 5.731 18.6267 5.66044 18.6267 5.66044C18.6512 5.24973 18.1008 5.54012 18.1008 5.54012L7.4457 12.3639L7.4422 12.3458L2.33517 10.5681V10.5645L2.32204 10.5618C2.33099 10.5587 2.33976 10.5551 2.34829 10.551L2.3763 10.5365L2.40342 10.5265C2.40342 10.5265 6.96353 8.53993 11.5989 6.52257C13.9196 5.51208 16.2579 4.49435 18.0562 3.70912C19.8545 2.92841 21.1838 2.35577 21.259 2.32501C21.3308 2.29607 21.2966 2.29607 21.3483 2.29607V2.29516Z" fill="white"/>
</svg>
