<svg width="26" height="26" viewBox="0 0 26 26" fill="none" xmlns="http://www.w3.org/2000/svg">
<path d="M12.3585 0.817023C10.2978 0.840637 5.86733 1.16208 3.38931 3.32003C1.54605 5.05369 0.902469 7.61687 0.827037 10.7864C0.764445 13.9445 0.689013 19.8752 6.71153 21.49V23.9496C6.71153 23.9496 6.67381 24.9338 7.35912 25.1356C8.20331 25.3893 8.68399 24.6321 9.48646 23.8186L10.9831 22.2121C15.1037 22.5374 18.2598 21.7879 18.6233 21.6766C19.4595 21.423 24.1692 20.8517 24.9388 14.9202C25.7284 8.79449 24.5544 4.93487 22.4351 3.18901H22.4222C21.7827 2.62991 19.2124 0.852062 13.4699 0.832258C13.4699 0.832258 13.0438 0.804836 12.3585 0.816262V0.817023ZM12.4291 2.53927C13.0141 2.53546 13.3696 2.55907 13.3696 2.55907C18.2301 2.57126 20.5501 3.95987 21.0974 4.42756C22.882 5.8794 23.8017 9.35892 23.1284 14.4731C22.4888 19.4319 18.6691 19.7457 17.9621 19.9597C17.6612 20.0511 14.8814 20.7017 11.3795 20.4876C11.3795 20.4876 8.77146 23.4751 7.95615 24.2444C7.82696 24.3792 7.67609 24.4188 7.5798 24.399C7.44177 24.367 7.40004 24.2048 7.40807 23.9824L7.43295 19.9003C2.32524 18.5597 2.62617 13.5011 2.68074 10.8587C2.74333 8.21634 3.26573 6.05459 4.82091 4.59057C6.91455 2.79368 10.6765 2.55145 12.4275 2.53927H12.4291ZM12.8143 5.1809C12.7723 5.1805 12.7305 5.188 12.6916 5.20297C12.6526 5.21794 12.6171 5.24008 12.5872 5.26812C12.5573 5.29616 12.5335 5.32954 12.5173 5.36634C12.501 5.40314 12.4926 5.44264 12.4925 5.48254C12.4925 5.65317 12.6385 5.78799 12.8143 5.78799C13.6099 5.77363 14.4007 5.90893 15.141 6.18608C15.8813 6.46324 16.5565 6.87677 17.1275 7.40283C18.2935 8.47761 18.8617 9.92183 18.8833 11.8101C18.8833 11.9769 19.0254 12.1156 19.2051 12.1156V12.1034C19.2899 12.1036 19.3712 12.072 19.4315 12.0155C19.4918 11.959 19.5261 11.8822 19.5269 11.8017C19.5659 10.9129 19.414 10.0259 19.0806 9.19452C18.7472 8.36314 18.2391 7.60481 17.5874 6.9656C16.3171 5.78723 14.7073 5.18014 12.8143 5.18014V5.1809ZM8.58449 5.8794C8.35734 5.84789 8.12569 5.89117 7.92807 6.00203H7.91122C7.45241 6.25731 7.03911 6.57996 6.68665 6.95799C6.39375 7.27943 6.23486 7.60469 6.19313 7.91775C6.16826 8.10437 6.18511 8.29099 6.24369 8.46923L6.26455 8.48142C6.59437 9.40158 7.02529 10.2867 7.55171 11.12C8.22981 12.2907 9.06432 13.3735 10.0345 14.3413L10.0634 14.3809L10.1092 14.4129L10.1381 14.4449L10.1718 14.4723C11.1951 15.396 12.3385 16.1918 13.5742 16.8405C14.9866 17.5702 15.8436 17.9153 16.358 18.0585V18.0661C16.5088 18.1095 16.6461 18.1293 16.7841 18.1293C17.2225 18.0988 17.6375 17.9299 17.9629 17.6495C18.3594 17.3148 18.6955 16.9209 18.958 16.4833V16.4756C19.2043 16.0354 19.1209 15.6187 18.7654 15.3369C18.0534 14.7462 17.2836 14.2215 16.4663 13.77C15.919 13.4882 15.3629 13.6588 15.1374 13.9445L14.6568 14.5196C14.4104 14.8052 13.9626 14.7656 13.9626 14.7656L13.9498 14.7732C10.6107 13.9635 9.71998 10.7544 9.71998 10.7544C9.71998 10.7544 9.67825 10.3179 9.9872 10.0955L10.589 9.63542C10.8771 9.413 11.0778 8.88589 10.7688 8.36564C10.2965 7.58881 9.74494 6.85786 9.12214 6.18332C8.98598 6.0243 8.79497 5.9161 8.58288 5.87787L8.58449 5.8794ZM13.3696 6.78432C12.9435 6.78432 12.9435 7.39521 13.3736 7.39521C13.9035 7.40337 14.4264 7.51056 14.9126 7.71067C15.3988 7.91077 15.8387 8.19985 16.2071 8.5614C16.5432 8.91332 16.8015 9.32569 16.9666 9.77409C17.1317 10.2225 17.2004 10.6978 17.1685 11.1718C17.1699 11.252 17.2044 11.3285 17.2646 11.3849C17.3247 11.4413 17.4057 11.4731 17.4903 11.4734L17.5031 11.4894C17.5883 11.4888 17.6697 11.4565 17.7299 11.3993C17.7902 11.3422 17.8243 11.2648 17.8249 11.184C17.8538 9.97363 17.4574 8.95826 16.6798 8.14474C15.8982 7.33123 14.8076 6.87496 13.4153 6.78432H13.3696ZM13.8968 8.42658C13.4579 8.41439 13.441 9.03748 13.876 9.04966C14.9336 9.10146 15.4472 9.60876 15.5146 10.6523C15.5161 10.7315 15.5501 10.8071 15.6095 10.8627C15.6689 10.9184 15.7489 10.9498 15.8324 10.9501H15.8452C15.8881 10.9484 15.9302 10.9386 15.9691 10.9212C16.0079 10.9038 16.0428 10.8793 16.0715 10.849C16.1003 10.8187 16.1224 10.7833 16.1366 10.7448C16.1508 10.7064 16.1568 10.6656 16.1542 10.6249C16.0787 9.26447 15.2971 8.49818 13.9097 8.42734H13.8968V8.42658Z" fill="white"/>
</svg>
